<?xml version="1.0" encoding="UTF-8"?>
<svg width="36" height="27" viewBox="0 0 36 27" fill="none" xmlns="http://www.w3.org/2000/svg">
  <path d="M9 27L3 22L9 17L11.1 18.75L8.7 20.75H27.3L24.9 18.75L27 17L33 22L27 27L24.9 25.25L27.3 23.25H8.7L11.1 25.25L9 27Z" fill="#1C1B1F"/>
  <path d="M30.6111 4.11765C30.6111 5.15611 30.2925 6.0773 29.801 6.72785C29.3097 7.37811 28.6681 7.7353 28 7.7353C27.332 7.7353 26.6904 7.37811 26.1991 6.72785C25.7076 6.0773 25.3889 5.15611 25.3889 4.11765C25.3889 3.07918 25.7076 2.15799 26.1991 1.50745C26.6904 0.857182 27.332 0.5 28 0.5C28.6681 0.5 29.3097 0.857182 29.801 1.50745C30.2925 2.15799 30.6111 3.07918 30.6111 4.11765Z" stroke="#1C1B1F"/>
  <path d="M22.1864 9.83666C20.7331 10.7974 21.0237 14.0001 21.0237 14.0001H34.9763C34.9763 14.0001 35.2669 10.7974 33.8136 9.83666C32.3602 8.87587 31.1974 8.23535 31.1974 8.23535C31.1974 8.23535 29.3716 9.83666 28 9.83666C26.6284 9.83666 24.8025 8.23535 24.8025 8.23535C24.8025 8.23535 23.6398 8.87587 22.1864 9.83666Z" stroke="#1C1B1F"/>
  <path d="M10.6111 4.11765C10.6111 5.15611 10.2925 6.0773 9.80098 6.72785C9.30967 7.37811 8.66806 7.7353 8.00003 7.7353C7.33199 7.7353 6.69038 7.37811 6.19907 6.72785C5.70755 6.0773 5.38892 5.15611 5.38892 4.11765C5.38892 3.07918 5.70755 2.15799 6.19907 1.50745C6.69038 0.857182 7.33199 0.5 8.00003 0.5C8.66806 0.5 9.30967 0.857182 9.80098 1.50745C10.2925 2.15799 10.6111 3.07918 10.6111 4.11765Z" stroke="#1C1B1F"/>
  <path d="M2.18645 9.83666C0.733061 10.7974 1.02373 14.0001 1.02373 14.0001H14.9763C14.9763 14.0001 15.2669 10.7974 13.8136 9.83666C12.3602 8.87587 11.1974 8.23535 11.1974 8.23535C11.1974 8.23535 9.37162 9.83666 7.99999 9.83666C6.62836 9.83666 4.80253 8.23535 4.80253 8.23535C4.80253 8.23535 3.63984 8.87587 2.18645 9.83666Z" stroke="#1C1B1F"/>
</svg>
